<svg xmlns="http://www.w3.org/2000/svg" xmlns:xlink="http://www.w3.org/1999/xlink" width="1000" zoomAndPan="magnify" viewBox="0 0 750 749.999995" height="1000" preserveAspectRatio="xMidYMid meet" version="1.2"><defs><clipPath id="bf34c11bb3"><path d="M 119 115 L 562 115 L 562 635 L 119 635 Z M 119 115 "/></clipPath><clipPath id="e6c8d75788"><path d="M 375 4.6875 L 745.171875 374.859375 L 375 745.03125 L 4.828125 374.859375 Z M 375 4.6875 "/></clipPath><clipPath id="e20094b8b7"><path d="M 375 4.6875 L 745.171875 374.859375 L 375 745.03125 L 4.828125 374.859375 Z M 375 4.6875 "/></clipPath></defs><g id="1d716e9467"><rect x="0" width="750" y="0" height="749.999995" style="fill:#ffffff;fill-opacity:1;stroke:none;"/><rect x="0" width="750" y="0" height="749.999995" style="fill:#000000;fill-opacity:1;stroke:none;"/><rect x="0" width="750" y="0" height="749.999995" style="fill:#282828;fill-opacity:1;stroke:none;"/><g clip-rule="nonzero" clip-path="url(#bf34c11bb3)"><g clip-rule="nonzero" clip-path="url(#e6c8d75788)"><g clip-rule="nonzero" clip-path="url(#e20094b8b7)"><path style=" stroke:none;fill-rule:nonzero;fill:#000000;fill-opacity:1;" d="M 561.855469 558.15625 C 525.601562 594.410156 479.410156 619.101562 429.125 629.105469 C 378.839844 639.105469 326.714844 633.972656 279.347656 614.351562 C 231.976562 594.730469 191.492188 561.503906 163.003906 518.875 C 134.523438 476.242188 119.316406 426.125 119.316406 374.851562 C 119.316406 323.582031 134.519531 273.460938 163.007812 230.828125 C 191.492188 188.199219 231.976562 154.972656 279.347656 135.351562 C 326.714844 115.730469 378.839844 110.597656 429.125 120.597656 C 479.410156 130.601562 525.601562 155.292969 561.855469 191.546875 L 378.550781 374.851562 Z M 561.855469 558.15625 "/></g></g></g></g></svg>