<svg xmlns="http://www.w3.org/2000/svg" xmlns:xlink="http://www.w3.org/1999/xlink" width="1000" zoomAndPan="magnify" viewBox="0 0 750 749.999995" height="1000" preserveAspectRatio="xMidYMid meet" version="1.2"><defs><clipPath id="27749d7320"><path d="M 143.371094 412 L 606.871094 412 L 606.871094 634 L 143.371094 634 Z M 143.371094 412 "/></clipPath></defs><g id="35db2e1ba7"><rect x="0" width="750" y="0" height="749.999995" style="fill:#ffffff;fill-opacity:1;stroke:none;"/><rect x="0" width="750" y="0" height="749.999995" style="fill:#000000;fill-opacity:1;stroke:none;"/><rect x="0" width="750" y="0" height="749.999995" style="fill:#282828;fill-opacity:1;stroke:none;"/><g clip-rule="nonzero" clip-path="url(#27749d7320)"><path style=" stroke:none;fill-rule:nonzero;fill:#000000;fill-opacity:1;" d="M 447.914062 412.800781 L 302.324219 412.800781 C 299.722656 412.804688 297.121094 412.871094 294.523438 413 C 291.929688 413.132812 289.335938 413.324219 286.746094 413.582031 C 284.160156 413.839844 281.578125 414.160156 279.007812 414.542969 C 276.433594 414.925781 273.875 415.371094 271.324219 415.882812 C 268.773438 416.390625 266.238281 416.960938 263.714844 417.59375 C 261.191406 418.226562 258.6875 418.921875 256.199219 419.679688 C 253.710938 420.433594 251.242188 421.25 248.792969 422.128906 C 246.347656 423.003906 243.921875 423.941406 241.519531 424.9375 C 239.117188 425.933594 236.742188 426.988281 234.390625 428.097656 C 232.039062 429.210938 229.71875 430.378906 227.425781 431.605469 C 225.132812 432.832031 222.871094 434.113281 220.640625 435.449219 C 218.410156 436.789062 216.214844 438.179688 214.050781 439.621094 C 211.890625 441.066406 209.765625 442.5625 207.675781 444.113281 C 205.585938 445.660156 203.539062 447.257812 201.527344 448.90625 C 199.515625 450.558594 197.546875 452.253906 195.621094 454 C 193.695312 455.746094 191.8125 457.535156 189.972656 459.375 C 188.132812 461.210938 186.339844 463.09375 184.59375 465.019531 C 182.847656 466.945312 181.148438 468.910156 179.5 470.921875 C 177.851562 472.929688 176.25 474.976562 174.699219 477.0625 C 173.152344 479.152344 171.652344 481.273438 170.207031 483.4375 C 168.761719 485.597656 167.371094 487.789062 166.03125 490.019531 C 164.695312 492.25 163.414062 494.507812 162.1875 496.800781 C 160.960938 499.089844 159.789062 501.410156 158.675781 503.761719 C 157.5625 506.109375 156.507812 508.484375 155.511719 510.882812 C 154.515625 513.285156 153.578125 515.707031 152.703125 518.15625 C 151.824219 520.601562 151.007812 523.066406 150.25 525.554688 C 149.492188 528.039062 148.796875 530.542969 148.164062 533.066406 C 147.53125 535.585938 146.960938 538.121094 146.449219 540.667969 C 145.941406 543.21875 145.496094 545.777344 145.109375 548.347656 C 144.726562 550.917969 144.40625 553.496094 144.148438 556.082031 C 143.890625 558.667969 143.699219 561.257812 143.566406 563.855469 C 143.4375 566.449219 143.371094 569.046875 143.371094 571.644531 L 143.371094 620.171875 C 143.371094 621.066406 143.457031 621.953125 143.632812 622.828125 C 143.804688 623.707031 144.0625 624.558594 144.40625 625.382812 C 144.75 626.210938 145.167969 626.996094 145.667969 627.738281 C 146.164062 628.484375 146.730469 629.171875 147.363281 629.804688 C 147.996094 630.4375 148.683594 631 149.429688 631.496094 C 150.171875 631.996094 150.957031 632.414062 151.785156 632.757812 C 152.613281 633.097656 153.464844 633.359375 154.34375 633.53125 C 155.21875 633.707031 156.105469 633.792969 157 633.792969 L 593.238281 633.792969 C 594.132812 633.792969 595.019531 633.707031 595.894531 633.53125 C 596.773438 633.359375 597.625 633.097656 598.453125 632.757812 C 599.28125 632.414062 600.066406 631.996094 600.808594 631.496094 C 601.554688 631 602.242188 630.4375 602.875 629.804688 C 603.507812 629.171875 604.074219 628.484375 604.570312 627.738281 C 605.070312 626.996094 605.488281 626.210938 605.832031 625.382812 C 606.175781 624.558594 606.433594 623.707031 606.605469 622.828125 C 606.78125 621.953125 606.867188 621.066406 606.867188 620.171875 L 606.867188 571.644531 C 606.867188 569.046875 606.800781 566.449219 606.671875 563.855469 C 606.539062 561.257812 606.347656 558.667969 606.089844 556.082031 C 605.832031 553.496094 605.511719 550.917969 605.128906 548.347656 C 604.742188 545.777344 604.296875 543.21875 603.789062 540.667969 C 603.277344 538.121094 602.707031 535.585938 602.074219 533.066406 C 601.441406 530.542969 600.746094 528.039062 599.988281 525.554688 C 599.230469 523.066406 598.414062 520.601562 597.535156 518.15625 C 596.660156 515.707031 595.722656 513.285156 594.726562 510.882812 C 593.730469 508.484375 592.675781 506.109375 591.5625 503.761719 C 590.449219 501.410156 589.277344 499.089844 588.050781 496.800781 C 586.824219 494.507812 585.542969 492.25 584.207031 490.019531 C 582.867188 487.789062 581.476562 485.597656 580.03125 483.4375 C 578.585938 481.273438 577.085938 479.152344 575.539062 477.0625 C 573.988281 474.976562 572.386719 472.929688 570.738281 470.921875 C 569.089844 468.910156 567.390625 466.945312 565.644531 465.019531 C 563.898438 463.09375 562.105469 461.210938 560.265625 459.375 C 558.425781 457.535156 556.542969 455.746094 554.617188 454 C 552.6875 452.253906 550.722656 450.558594 548.710938 448.90625 C 546.699219 447.257812 544.652344 445.660156 542.5625 444.113281 C 540.472656 442.5625 538.347656 441.066406 536.1875 439.621094 C 534.023438 438.179688 531.828125 436.789062 529.597656 435.449219 C 527.367188 434.113281 525.105469 432.832031 522.8125 431.605469 C 520.519531 430.378906 518.199219 429.210938 515.847656 428.097656 C 513.496094 426.988281 511.121094 425.933594 508.71875 424.9375 C 506.316406 423.941406 503.890625 423.003906 501.445312 422.128906 C 498.996094 421.25 496.527344 420.433594 494.039062 419.679688 C 491.550781 418.921875 489.046875 418.226562 486.523438 417.59375 C 484 416.960938 481.464844 416.390625 478.914062 415.882812 C 476.363281 415.371094 473.804688 414.925781 471.230469 414.542969 C 468.660156 414.160156 466.078125 413.839844 463.492188 413.582031 C 460.902344 413.324219 458.308594 413.132812 455.714844 413 C 453.117188 412.871094 450.515625 412.804688 447.914062 412.800781 Z M 447.914062 412.800781 "/></g><path style=" stroke:none;fill-rule:nonzero;fill:#000000;fill-opacity:1;" d="M 497.808594 238.726562 C 497.808594 240.734375 497.761719 242.738281 497.664062 244.742188 C 497.5625 246.75 497.417969 248.75 497.21875 250.746094 C 497.023438 252.742188 496.777344 254.734375 496.480469 256.71875 C 496.1875 258.703125 495.84375 260.679688 495.453125 262.648438 C 495.0625 264.617188 494.621094 266.574219 494.132812 268.519531 C 493.644531 270.464844 493.109375 272.398438 492.527344 274.320312 C 491.945312 276.238281 491.316406 278.144531 490.636719 280.03125 C 489.960938 281.921875 489.238281 283.792969 488.472656 285.648438 C 487.703125 287.5 486.890625 289.335938 486.03125 291.148438 C 485.171875 292.964844 484.269531 294.753906 483.324219 296.523438 C 482.375 298.292969 481.386719 300.039062 480.355469 301.761719 C 479.324219 303.480469 478.25 305.175781 477.132812 306.84375 C 476.015625 308.511719 474.863281 310.152344 473.664062 311.765625 C 472.46875 313.375 471.234375 314.957031 469.960938 316.507812 C 468.6875 318.058594 467.375 319.578125 466.027344 321.066406 C 464.679688 322.550781 463.292969 324.003906 461.875 325.425781 C 460.453125 326.84375 459 328.226562 457.511719 329.574219 C 456.027344 330.921875 454.503906 332.230469 452.953125 333.503906 C 451.402344 334.777344 449.820312 336.011719 448.207031 337.207031 C 446.59375 338.402344 444.953125 339.558594 443.28125 340.671875 C 441.613281 341.785156 439.917969 342.859375 438.195312 343.890625 C 436.472656 344.921875 434.726562 345.910156 432.957031 346.859375 C 431.183594 347.804688 429.390625 348.707031 427.578125 349.5625 C 425.761719 350.421875 423.925781 351.234375 422.070312 352 C 420.214844 352.769531 418.34375 353.492188 416.453125 354.167969 C 414.5625 354.84375 412.65625 355.472656 410.734375 356.054688 C 408.8125 356.636719 406.878906 357.171875 404.929688 357.660156 C 402.984375 358.148438 401.023438 358.585938 399.054688 358.980469 C 397.085938 359.371094 395.109375 359.714844 393.121094 360.007812 C 391.136719 360.300781 389.144531 360.546875 387.144531 360.746094 C 385.148438 360.941406 383.144531 361.089844 381.140625 361.1875 C 379.132812 361.285156 377.128906 361.335938 375.121094 361.335938 C 373.109375 361.335938 371.105469 361.285156 369.097656 361.1875 C 367.09375 361.089844 365.089844 360.941406 363.09375 360.746094 C 361.09375 360.546875 359.101562 360.300781 357.117188 360.007812 C 355.128906 359.714844 353.152344 359.371094 351.183594 358.980469 C 349.214844 358.585938 347.253906 358.148438 345.308594 357.660156 C 343.359375 357.171875 341.425781 356.636719 339.503906 356.054688 C 337.582031 355.472656 335.675781 354.84375 333.785156 354.167969 C 331.894531 353.492188 330.023438 352.769531 328.167969 352 C 326.3125 351.234375 324.476562 350.421875 322.660156 349.5625 C 320.847656 348.707031 319.054688 347.804688 317.28125 346.859375 C 315.511719 345.910156 313.765625 344.921875 312.042969 343.890625 C 310.320312 342.859375 308.625 341.785156 306.957031 340.671875 C 305.285156 339.558594 303.644531 338.402344 302.03125 337.207031 C 300.417969 336.011719 298.835938 334.777344 297.285156 333.503906 C 295.734375 332.230469 294.210938 330.921875 292.726562 329.574219 C 291.238281 328.226562 289.78125 326.84375 288.363281 325.425781 C 286.945312 324.003906 285.558594 322.550781 284.210938 321.066406 C 282.863281 319.578125 281.550781 318.058594 280.277344 316.507812 C 279.003906 314.957031 277.769531 313.375 276.574219 311.765625 C 275.375 310.152344 274.21875 308.511719 273.105469 306.84375 C 271.988281 305.175781 270.914062 303.480469 269.882812 301.761719 C 268.851562 300.039062 267.863281 298.292969 266.914062 296.523438 C 265.96875 294.753906 265.066406 292.964844 264.207031 291.148438 C 263.347656 289.335938 262.535156 287.5 261.765625 285.648438 C 261 283.792969 260.277344 281.921875 259.601562 280.03125 C 258.921875 278.144531 258.292969 276.238281 257.710938 274.320312 C 257.128906 272.398438 256.59375 270.464844 256.105469 268.519531 C 255.617188 266.574219 255.175781 264.617188 254.785156 262.648438 C 254.394531 260.679688 254.050781 258.703125 253.757812 256.71875 C 253.460938 254.734375 253.214844 252.742188 253.019531 250.746094 C 252.820312 248.75 252.675781 246.75 252.574219 244.742188 C 252.476562 242.738281 252.429688 240.734375 252.429688 238.726562 C 252.429688 236.722656 252.476562 234.714844 252.574219 232.710938 C 252.675781 230.707031 252.820312 228.707031 253.019531 226.710938 C 253.214844 224.714844 253.460938 222.722656 253.757812 220.738281 C 254.050781 218.753906 254.394531 216.777344 254.785156 214.808594 C 255.175781 212.839844 255.617188 210.882812 256.105469 208.9375 C 256.59375 206.992188 257.128906 205.058594 257.710938 203.136719 C 258.292969 201.21875 258.921875 199.3125 259.601562 197.421875 C 260.277344 195.535156 261 193.664062 261.765625 191.808594 C 262.535156 189.953125 263.347656 188.121094 264.207031 186.308594 C 265.066406 184.492188 265.96875 182.703125 266.914062 180.933594 C 267.863281 179.160156 268.851562 177.417969 269.882812 175.695312 C 270.914062 173.972656 271.988281 172.28125 273.105469 170.613281 C 274.21875 168.941406 275.375 167.304688 276.574219 165.691406 C 277.769531 164.078125 279.003906 162.5 280.277344 160.945312 C 281.550781 159.394531 282.863281 157.878906 284.210938 156.390625 C 285.558594 154.902344 286.945312 153.449219 288.363281 152.03125 C 289.78125 150.613281 291.238281 149.230469 292.726562 147.882812 C 294.210938 146.535156 295.734375 145.226562 297.285156 143.953125 C 298.835938 142.679688 300.417969 141.445312 302.03125 140.25 C 303.644531 139.054688 305.285156 137.898438 306.957031 136.785156 C 308.625 135.667969 310.320312 134.597656 312.042969 133.566406 C 313.765625 132.535156 315.511719 131.542969 317.28125 130.597656 C 319.054688 129.652344 320.847656 128.75 322.660156 127.894531 C 324.476562 127.035156 326.3125 126.222656 328.167969 125.453125 C 330.023438 124.6875 331.894531 123.964844 333.785156 123.289062 C 335.675781 122.613281 337.582031 121.984375 339.503906 121.402344 C 341.425781 120.820312 343.359375 120.285156 345.308594 119.796875 C 347.253906 119.308594 349.214844 118.867188 351.183594 118.476562 C 353.152344 118.085938 355.128906 117.742188 357.117188 117.449219 C 359.101562 117.152344 361.09375 116.910156 363.09375 116.710938 C 365.089844 116.515625 367.09375 116.367188 369.097656 116.269531 C 371.105469 116.171875 373.109375 116.121094 375.121094 116.121094 C 377.128906 116.121094 379.132812 116.171875 381.140625 116.269531 C 383.144531 116.367188 385.148438 116.515625 387.144531 116.710938 C 389.144531 116.910156 391.136719 117.152344 393.121094 117.449219 C 395.109375 117.742188 397.085938 118.085938 399.054688 118.476562 C 401.023438 118.867188 402.984375 119.308594 404.929688 119.796875 C 406.878906 120.285156 408.8125 120.820312 410.734375 121.402344 C 412.65625 121.984375 414.5625 122.613281 416.453125 123.289062 C 418.34375 123.964844 420.214844 124.6875 422.070312 125.453125 C 423.925781 126.222656 425.761719 127.035156 427.578125 127.894531 C 429.390625 128.75 431.183594 129.652344 432.957031 130.597656 C 434.726562 131.542969 436.472656 132.535156 438.195312 133.566406 C 439.917969 134.597656 441.613281 135.667969 443.28125 136.785156 C 444.953125 137.898438 446.59375 139.054688 448.207031 140.25 C 449.820312 141.445312 451.402344 142.679688 452.953125 143.953125 C 454.503906 145.226562 456.027344 146.535156 457.511719 147.882812 C 459 149.230469 460.453125 150.613281 461.875 152.03125 C 463.292969 153.449219 464.679688 154.902344 466.027344 156.390625 C 467.375 157.878906 468.6875 159.394531 469.960938 160.945312 C 471.234375 162.5 472.46875 164.078125 473.664062 165.691406 C 474.863281 167.304688 476.015625 168.941406 477.132812 170.613281 C 478.25 172.28125 479.324219 173.972656 480.355469 175.695312 C 481.386719 177.417969 482.375 179.160156 483.324219 180.933594 C 484.269531 182.703125 485.171875 184.492188 486.03125 186.308594 C 486.890625 188.121094 487.703125 189.953125 488.472656 191.808594 C 489.238281 193.664062 489.960938 195.535156 490.636719 197.421875 C 491.316406 199.3125 491.945312 201.21875 492.527344 203.136719 C 493.109375 205.058594 493.644531 206.992188 494.132812 208.9375 C 494.621094 210.882812 495.0625 212.839844 495.453125 214.808594 C 495.84375 216.777344 496.1875 218.753906 496.480469 220.738281 C 496.777344 222.722656 497.023438 224.714844 497.21875 226.710938 C 497.417969 228.707031 497.5625 230.707031 497.664062 232.710938 C 497.761719 234.714844 497.808594 236.722656 497.808594 238.726562 Z M 497.808594 238.726562 "/></g></svg>