<?xml version="1.0" standalone="no"?>
<!DOCTYPE svg PUBLIC "-//W3C//DTD SVG 1.1//EN" "http://www.w3.org/Graphics/SVG/1.1/DTD/svg11.dtd">
<svg xmlns="http://www.w3.org/2000/svg" xmlns:xlink="http://www.w3.org/1999/xlink" id="eH3QWJ8nqgc1" viewBox="0 0 371 314" shape-rendering="geometricPrecision" text-rendering="geometricPrecision" project-id="df31cbb3592140d0bc82a163c9a29a1e" export-id="3e104c51763f4d0faa385de837f43c44" cached="false" width="371" height="314"><g transform="translate(.000001 0.000001)"><path d="M53.56604,130.21396L34.32905,190.46759L14.39648,196.0824L62.65069,40.63982l12.48352,22.0188-14.72497,46.12123l24.2603-11.91823l15.62978-65.85825l13.95048,21.1199L82.22132,182.40899L62.71623,189.3649l16.8877-71.15864q-23.434101,10.80693-26.03789,12.0077Z" fill="#f00" stroke-width="0.742"/><path d="M161.021347,180.181335l-4.275437,22.995739-51.082831-41.410343L138.665266,20.883505l42.394455,51.519792-3.118849,16.775032-29.914595-31.05004-7.992402,33.918006l31.954879,29.14592-4.147049,22.305252-33.290893-28.21431-8.726929,36.984137q31.677718,25.122637,35.197464,27.914041Z" fill="#f00" stroke-width="0.742"/><path d="M205.69662,38.51294l.93212,130.72315l33.579681-24.100644v17.9545L189.92289,200.64072l.01537-148.51745q14.182524-12.249297,15.75836-13.61033Zm12.34809-11.77665c4.826631-4.390989,16.16717-14.977044,16.16717-15.13382c0-.46984.92945,35.507552,2.98406,102.929272l23.674254-19.008131-.025514,22.264049-40.34459,28.91832-2.45538-119.96969Z" fill="#f00" stroke-width="0.742"/><path d="M246.419056,82.79422l-.395674,14.911967l15.942359-13.815084v-16.925788L246.419056,82.79422Z" transform="translate(.000002 0.000002)" fill="#fff" stroke-width="0.742"/><path d="M268.83571,19.73048l42.97213,49.85533-7.62941,15.44155L283.69185,62.9616l3.11468,57.22565-15.77494,31.92773-2.19588-132.3845Zm74.85823,195.77003c-.41199.61799-18.60115-9.86233-54.56748-31.44095l9.27724-18.12692l26.3346,20.73714-7.85899-56.83689l9.17634-17.92979c12.17276,68.44409,18.05219,102.97655,17.63829,103.5974v.00001Z" transform="translate(0 0.000001)" fill="#fff" stroke-width="0.742"/><path d="M329.998134,62.766363l.09753,25.809286-60.243235,108.861053-.202399-29.379588L329.998134,62.766363Z" transform="translate(.000003 0.000003)" fill="#fff" stroke-width="0.742"/></g><g transform="translate(.000001 0)"><path d="M110.478498,185.302668L107.87982,291.41831L67.106294,250.080182L63.85077,297.74749L10.71074,216.6215l15.42858-7.76677c18.00187,31.75515,26.94274,47.21226,26.82261,46.37133-.12264-.85848.12264-14.65552.73584-41.3911c26.98087,26.73558,40.65526,40.10338,41.02318,40.10338.35315,0,.23976-82.348876.23976-82.348876q13.935864,12.927136,15.517788,13.713204Z" transform="translate(.053689 0)" fill="#fff" stroke-width="0.742"/><path d="M151.03885,298.46849l-34.228469-36.275283l2.479866-70.053645l45.621522,43.8823L151.03885,298.46849Zm-2.71986-52.648948l-17.413145-18.651588c0,0-1.762661,28.744117-1.762661,28.744117s14.883141,16.558672,14.883141,16.558672l4.292665-26.651201Z" fill="#fff" stroke-width="0.742"/><path d="M176.89922,297.35312l-8.01281-88.46089c16.6454-.93705,43.45791-2.03127,49.00474,21.45769c2.92764,10.20324-2.33358,26.8121-14.2328,32.49375l26.25788,20.75497-9.14862,12.19817-32.707401-26.534889l2.734029,24.288701-13.895018,3.802498Zm25.07536-61.88888c-2.074772-7.1894-7.277376-9.345509-17.763091-7.267723l1.829943,20.617357c12.85989-2.10368,17.485468-5.786804,15.933148-13.349634Z" transform="translate(0 0.000002)" fill="#fff" stroke-width="0.742"/><path d="M234.002634,294.113l34.829224.005364l3.272175-17.90607-23.23097.834301l8.576234-100.595285-17.535136,22.836354L234.002634,294.113Z" transform="translate(.000005 0.000001)" fill="#fff" stroke-width="0.742"/><path d="M285.490956,195.472747l15.132796,12.037451-9.52013,82.1777-15.05207,8.8728l9.439404-103.087951Zm10.764541,93.758317l2.672794-22.326567l25.049879-22.936892-18.85028-12.512566l2.374405-19.817715l39.783228,28.681941-51.030026,48.911799Z" fill="#fff" stroke-width="0.742"/></g></svg>